<svg width="210" height="21" viewBox="0 0 210 21" fill="none" xmlns="http://www.w3.org/2000/svg">
<path fill-rule="evenodd" clip-rule="evenodd" d="M0.000488281 7.65024V8.50874H1.96601V13.602H2.90212V8.50874H4.87653V7.65024H0.000488281Z" fill="#252429"/>
<path fill-rule="evenodd" clip-rule="evenodd" d="M15.311 13.6018H14.3752V7.65042H15.311V9.99677H18.4173V7.65042H19.3539V13.6018H18.4173V10.8553H15.311V13.6018Z" fill="#252429"/>
<path fill-rule="evenodd" clip-rule="evenodd" d="M33.7704 13.6018H29.421V7.65042H33.6601V8.50892H30.3575V9.99677H33.0471V10.8553H30.3575V12.7429H33.7704V13.6018Z" fill="#252429"/>
<path fill-rule="evenodd" clip-rule="evenodd" d="M61.131 2.63434V9.72221H67.7734C69.1308 9.72221 70.1807 9.41641 70.9254 8.8044C71.6701 8.1928 72.0425 7.3222 72.0425 6.1926C72.0425 5.06299 71.6649 4.18755 70.9117 3.56626C70.1577 2.94498 69.1118 2.63434 67.7734 2.63434H61.131ZM61.131 20.5095H59.0386V0.742249H67.8869C69.8088 0.742249 71.3305 1.22717 72.452 2.19662C73.5731 3.16646 74.134 4.46995 74.134 6.10787C74.134 7.51948 73.7245 8.69628 72.9043 9.63749C72.0845 10.5791 70.9396 11.1721 69.4696 11.417L75.8584 20.5095H73.399L67.1802 11.6143H61.131V20.5095Z" fill="#252429"/>
<mask id="mask0" mask-type="alpha" maskUnits="userSpaceOnUse" x="100" y="0" width="21" height="21">
<path fill-rule="evenodd" clip-rule="evenodd" d="M100.886 0.403564H120.787V20.8485H100.886V0.403564Z" fill="white"/>
</mask>
<g mask="url(#mask0)">
<path fill-rule="evenodd" clip-rule="evenodd" d="M105.267 16.5279C106.756 18.1093 108.612 18.9 110.836 18.9C113.06 18.9 114.916 18.1093 116.405 16.5279C117.913 14.9279 118.667 12.9603 118.667 10.6261C118.667 8.29144 117.913 6.32431 116.405 4.7239C114.916 3.14286 113.06 2.35213 110.836 2.35213C108.612 2.35213 106.756 3.14286 105.267 4.7239C103.76 6.32431 103.006 8.29144 103.006 10.6261C103.006 12.9603 103.76 14.9279 105.267 16.5279ZM103.713 3.34054C105.616 1.38229 107.99 0.403564 110.836 0.403564C113.663 0.403564 116.028 1.38229 117.932 3.34054C119.834 5.29839 120.787 7.72704 120.787 10.6261C120.787 13.5441 119.834 15.982 117.932 17.9399C116.046 19.8792 113.681 20.8486 110.836 20.8486C107.971 20.8486 105.597 19.8792 103.713 17.9399C101.828 16.0006 100.886 13.5627 100.886 10.6261C100.886 7.70808 101.828 5.27943 103.713 3.34054Z" fill="#252429"/>
</g>
<mask id="mask1" mask-type="alpha" maskUnits="userSpaceOnUse" x="146" y="0" width="20" height="21">
<path fill-rule="evenodd" clip-rule="evenodd" d="M146.024 0.403564H165.925V20.8485H146.024V0.403564Z" fill="white"/>
</mask>
<g mask="url(#mask1)">
<path fill-rule="evenodd" clip-rule="evenodd" d="M150.406 16.5279C151.895 18.1093 153.751 18.9 155.975 18.9C158.198 18.9 160.055 18.1093 161.543 16.5279C163.051 14.9279 163.805 12.9603 163.805 10.6261C163.805 8.29144 163.051 6.32431 161.543 4.7239C160.055 3.14286 158.198 2.35213 155.975 2.35213C153.751 2.35213 151.895 3.14286 150.406 4.7239C148.898 6.32431 148.144 8.29144 148.144 10.6261C148.144 12.9603 148.898 14.9279 150.406 16.5279ZM148.851 3.34054C150.754 1.38229 153.129 0.403564 155.975 0.403564C158.801 0.403564 161.166 1.38229 163.07 3.34054C164.973 5.29839 165.925 7.72704 165.925 10.6261C165.925 13.5441 164.973 15.982 163.07 17.9399C161.185 19.8792 158.82 20.8486 155.975 20.8486C153.11 20.8486 150.735 19.8792 148.851 17.9399C146.967 16.0006 146.024 13.5627 146.024 10.6261C146.024 7.70808 146.967 5.27943 148.851 3.34054Z" fill="#252429"/>
</g>
<mask id="mask2" mask-type="alpha" maskUnits="userSpaceOnUse" x="191" y="0" width="19" height="21">
<path fill-rule="evenodd" clip-rule="evenodd" d="M191.302 0.742126H209.704V20.5094H191.302V0.742126Z" fill="white"/>
</mask>
<g mask="url(#mask2)">
<path fill-rule="evenodd" clip-rule="evenodd" d="M193.365 20.5094H191.302V0.742126H193.365L200.517 10.3151L207.669 0.742126H209.704V20.5094H207.641V3.90502L201.167 12.5461H199.896L193.365 3.90502V20.5094Z" fill="#252429"/>
</g>
</svg>
